<svg id="Laag_1" data-name="Laag 1" xmlns="http://www.w3.org/2000/svg" width="24" height="24" viewBox="0 0 24 24"><title>under-construction_presentatiekenmerken</title><circle cx="12" cy="12" r="12" fill="#e66a0b"/><path d="M19.1,8.4c0-.2-.2-.2-.3-.2h-.2l-2,2h-.2l-1.5-.2-.2-.2V8.3l2-2a.2.2,0,0,0,0-.4.1.1,0,0,0-.1-.1,4.1,4.1,0,0,0-4.9,5.3c.1.1,0,.2,0,.3L6.3,16.6A1.6,1.6,0,0,0,6,18.2a1.5,1.5,0,0,0,1.9.7l.4-.3,5.2-5.2h.3a4,4,0,0,0,4.3-.9A4.2,4.2,0,0,0,19.1,8.4Z" transform="translate(-0.2 -0.2)" fill="#fff"/></svg>