<svg id="Laag_1" data-name="Laag 1" xmlns="http://www.w3.org/2000/svg" width="24" height="24" viewBox="0 0 24 24"><title>update_inline-stijl</title><circle cx="12" cy="12" r="12" style="fill:#0182c0"/><path d="M11.3,7.7a4.8,4.8,0,0,1,4.9,1.5.9.9,0,0,0,1.3.1.9.9,0,0,0,.1-1.2h0A6.8,6.8,0,0,0,10.9,6a7,7,0,0,0-5.1,4.9c-.1.1-.1.2-.2.1H4.8c-.1-.1-.2,0-.3.1a.3.3,0,0,0,0,.4l1.7,3,.3.2h.3l2.4-2.5a.4.4,0,0,0,0-.5H9l-1.3-.2a.2.2,0,0,1-.2-.2h0A5.4,5.4,0,0,1,11.3,7.7Z" transform="translate(-0.2 -0.2)" style="fill:#fff"/><path d="M20.4,14.1c.1-.2.1-.3,0-.4l-1.7-3-.3-.2h-.3l-2.4,2.5a.4.4,0,0,0,0,.5h.2l1.3.2h.2v.2a5.2,5.2,0,0,1-3.8,3.4,5,5,0,0,1-4.9-1.6,1,1,0,0,0-1.3-.1,1,1,0,0,0-.1,1.3h.1A6.6,6.6,0,0,0,14,19.2a7.1,7.1,0,0,0,5.2-5h1.2Z" transform="translate(-0.2 -0.2)" style="fill:#fff"/></svg>