<svg id="Layer_1" data-name="Layer 1" xmlns="http://www.w3.org/2000/svg" viewBox="0 0 16 16"><defs><style>.cls-1{fill:#fff;}.cls-2,.cls-3{fill:#2b579a;}.cls-3{fill-rule:evenodd;}</style></defs><title>Word_16x1</title><rect class="cls-1" x="6.5" y="1.5" width="9" height="13" rx="0.5" ry="0.5"/><path class="cls-2" d="M15,2V14H7V2h8m0-1H7A1,1,0,0,0,6,2V14a1,1,0,0,0,1,1h8a1,1,0,0,0,1-1V2a1,1,0,0,0-1-1Z"/><path class="cls-2" d="M8,4h5V5H8ZM8,7h5V6H8ZM8,9h5V8H8Zm0,2h5V10H8Z"/><path class="cls-3" d="M10,0,0,1.75v12.5L10,16Z"/><path class="cls-1" d="M8,5l-1.09.07L6.28,9l0,.16,0,.16q0,.08,0,.16t0,.17h0l0-.2,0-.17,0-.14,0-.12L5.41,5.17l-1,.07-.74,3.7,0,.17,0,.16q0,.08,0,.16t0,.15h0q0-.1,0-.19c0-.06,0-.12,0-.17V9.07l0-.12L2.93,5.33,2,5.39l1,5.35,1,.07.71-3.57,0-.14,0-.15,0-.17V6.6h0c0,.06,0,.12,0,.18s0,.11,0,.16l0,.15,0,.14.72,3.68L6.75,11,8,5"/></svg>