<svg xmlns="http://www.w3.org/2000/svg" version="1.1" xmlns:xlink="http://www.w3.org/1999/xlink" xmlns:svgjs="http://svgjs.com/svgjs" viewBox="0 0 140 140" width="140" height="140"><g transform="matrix(5.833333333333333,0,0,5.833333333333333,0,0)"><path d="M9.000 11.998 A3.000 3.000 0 1 0 15.000 11.998 A3.000 3.000 0 1 0 9.000 11.998 Z" fill="none" stroke="#000000" stroke-linecap="round" stroke-linejoin="round" stroke-width="1.5"></path><path d="M1.026,11.369a.854.854,0,0,0,0,1.257l3.118,2.858A.66.66,0,0,0,5.25,15V9a.66.66,0,0,0-1.106-.486Z" fill="none" stroke="#000000" stroke-linecap="round" stroke-linejoin="round" stroke-width="1.5"></path><path d="M22.973,12.626a.852.852,0,0,0,0-1.257L19.856,8.511A.66.66,0,0,0,18.75,9v6a.659.659,0,0,0,1.105.486Z" fill="none" stroke="#000000" stroke-linecap="round" stroke-linejoin="round" stroke-width="1.5"></path><path d="M11.372,22.971a.85.85,0,0,0,1.256,0l2.858-3.118A.659.659,0,0,0,15,18.748H9a.66.66,0,0,0-.487,1.105Z" fill="none" stroke="#000000" stroke-linecap="round" stroke-linejoin="round" stroke-width="1.5"></path><path d="M12.628,1.024a.852.852,0,0,0-1.256,0L8.514,4.142A.66.66,0,0,0,9,5.248h6a.66.66,0,0,0,.486-1.106Z" fill="none" stroke="#000000" stroke-linecap="round" stroke-linejoin="round" stroke-width="1.5"></path></g></svg>