<svg xmlns="http://www.w3.org/2000/svg" version="1.1" xmlns:xlink="http://www.w3.org/1999/xlink" xmlns:svgjs="http://svgjs.com/svgjs" viewBox="0 0 140 140" width="140" height="140"><g transform="matrix(5.833333333333333,0,0,5.833333333333333,0,0)"><path d="M23.251 10.573L12.001 2.747 0.751 10.573" fill="none" stroke="#000000" stroke-linecap="round" stroke-linejoin="round" stroke-width="1.5"></path><path d="M23.251,20.768c0,.538-.362.727-.8.42L12.8,14.479a1.517,1.517,0,0,0-1.607,0L1.554,21.188c-.442.307-.8.118-.8-.42v-3.3a2.1,2.1,0,0,1,.8-1.537L11.2,9.218a1.517,1.517,0,0,1,1.607,0l9.643,6.709a2.1,2.1,0,0,1,.8,1.537Z" fill="none" stroke="#000000" stroke-linecap="round" stroke-linejoin="round" stroke-width="1.5"></path></g></svg>