<svg viewBox="0 0 140 140" height="140" width="140" xmlns="http://www.w3.org/2000/svg"><g transform="matrix(5.833333333333333,0,0,5.833333333333333,0,0)"><path d="M11.250 17.250 A6.000 6.000 0 1 0 23.250 17.250 A6.000 6.000 0 1 0 11.250 17.250 Z" fill="none" stroke="#000000" stroke-linecap="round" stroke-linejoin="round" stroke-width="1.5"></path><path d="M17.25 14.25L17.25 20.25" fill="none" stroke="#000000" stroke-linecap="round" stroke-linejoin="round" stroke-width="1.5"></path><path d="M14.25 17.25L20.25 17.25" fill="none" stroke="#000000" stroke-linecap="round" stroke-linejoin="round" stroke-width="1.5"></path><path d="M10.782,10.513A6.052,6.052,0,0,0,6.75,9a6,6,0,0,0-6,5.25" fill="none" stroke="#000000" stroke-linecap="round" stroke-linejoin="round" stroke-width="1.5"></path><path d="M3.375 4.125 A3.375 3.375 0 1 0 10.125 4.125 A3.375 3.375 0 1 0 3.375 4.125 Z" fill="none" stroke="#000000" stroke-linecap="round" stroke-linejoin="round" stroke-width="1.5"></path><path d="M13.875 3.375 A2.625 2.625 0 1 0 19.125 3.375 A2.625 2.625 0 1 0 13.875 3.375 Z" fill="none" stroke="#000000" stroke-linecap="round" stroke-linejoin="round" stroke-width="1.5"></path><path d="M20.4,9a4.5,4.5,0,0,0-7.285-.71" fill="none" stroke="#000000" stroke-linecap="round" stroke-linejoin="round" stroke-width="1.5"></path></g></svg>